<?xml version="1.0" encoding="UTF-8" standalone="no"?>
<!-- Generator: Adobe Illustrator 12.0.1, SVG Export Plug-In . SVG Version: 6.00 Build 51448)  -->

<svg
   version="1.0"
   id="Layer_1"
   width="500"
   height="312"
   viewBox="0 0 499.99999 311.99997"
   overflow="visible"
   enable-background="new 0 0 436.505 152.503"
   xml:space="preserve"
   sodipodi:docname="logo.svg"
   inkscape:version="1.4.3 (0d15f75, 2025-12-25)"
   xmlns:inkscape="http://www.inkscape.org/namespaces/inkscape"
   xmlns:sodipodi="http://sodipodi.sourceforge.net/DTD/sodipodi-0.dtd"
   xmlns:xlink="http://www.w3.org/1999/xlink"
   xmlns="http://www.w3.org/2000/svg"
   xmlns:svg="http://www.w3.org/2000/svg"><defs
   id="defs7"><linearGradient
   id="linearGradient33"
   inkscape:collect="always"><stop
     style="stop-color:#686868;stop-opacity:1;"
     offset="0"
     id="stop33" /><stop
     style="stop-color:#515151;stop-opacity:1;"
     offset="1"
     id="stop34" /></linearGradient><linearGradient
   id="linearGradient23"
   inkscape:collect="always"><stop
     style="stop-color:#556fff;stop-opacity:1;"
     offset="0"
     id="stop23" /><stop
     style="stop-color:#55ffdd;stop-opacity:1;"
     offset="1"
     id="stop24" /></linearGradient>

















	<linearGradient
   inkscape:collect="always"
   xlink:href="#linearGradient23"
   id="linearGradient24-2"
   x1="-1.61845"
   y1="76.251953"
   x2="438.9454"
   y2="76.251953"
   gradientUnits="userSpaceOnUse"
   gradientTransform="translate(0.44608772)" /><radialGradient
   inkscape:collect="always"
   xlink:href="#linearGradient33"
   id="radialGradient34-3"
   cx="420.73083"
   cy="-35.568977"
   fx="420.73083"
   fy="-35.568977"
   r="250.93925"
   gradientTransform="matrix(0.99999998,0,0,0.34876765,0.44608775,56.344295)"
   gradientUnits="userSpaceOnUse" /></defs><sodipodi:namedview
   id="namedview7"
   pagecolor="#ffffff"
   bordercolor="#000000"
   borderopacity="0.25"
   inkscape:showpageshadow="2"
   inkscape:pageopacity="0.0"
   inkscape:pagecheckerboard="0"
   inkscape:deskcolor="#d1d1d1"
   inkscape:zoom="1.676"
   inkscape:cx="202.2673"
   inkscape:cy="116.94511"
   inkscape:window-width="1728"
   inkscape:window-height="1051"
   inkscape:window-x="0"
   inkscape:window-y="38"
   inkscape:window-maximized="0"
   inkscape:current-layer="Layer_1" />

<path
   style="fill:#4482b4;fill-opacity:1;stroke:#000000;stroke-width:3.77953;stroke-opacity:1"
   d="m 228.52685,283.01036 c -44.24965,-7.5787 -79.93016,-32.42071 -101.87119,-70.9262 -19.02859,-33.39431 -23.04622,-76.13589 -10.64392,-113.235542 7.84394,-23.463992 21.12235,-43.819734 38.73628,-59.382657 20.38802,-18.013946 42.32258,-29.228787 67.77883,-34.6543777 12.03599,-2.56528 42.96401,-2.56528 54.99999,0 57.57162,12.2704657 101.16579,56.7450747 111.70878,113.9648167 2.26979,12.3188 2.25857,36.88902 -0.0227,49.44219 -9.92561,54.62075 -51.34439,98.77629 -105.18618,112.13647 -4.39997,1.09179 -11.23619,2.47105 -15.19155,3.065 -9.46631,1.42145 -30.88811,1.20375 -40.30843,-0.4097 z m 42.07378,-23.11804 c 12.84707,-2.19107 22.75431,-5.44986 34.04549,-11.19855 9.74223,-4.96007 22.24109,-13.65003 27.11471,-18.85176 l 2.734,-2.9181 -8.43152,-8.38771 -8.43152,-8.38772 -4.55093,4.1949 c -10.52251,9.69932 -25.61518,17.4974 -41.2797,21.3284 -11.61494,2.84066 -30.31703,3.03621 -41.77432,0.43688 -37.50263,-8.50836 -65.25514,-36.76713 -73.01813,-74.35022 -2.03581,-9.85599 -2.0064,-27.79034 0.062,-37.86444 6.98045,-33.996932 32.60527,-61.49035 67.17426,-72.072687 8.06192,-2.467918 10.1754,-2.688303 25.78182,-2.688303 15.67435,0 17.697,0.213166 25.93837,2.733657 12.02669,3.678198 24.44092,10.251628 34.0887,18.05023 l 7.97295,6.444737 7.96414,-7.902576 7.96418,-7.902615 -2.96417,-3.11331 C 322.12948,48.135782 303.35612,36.75536 288.20233,31.504651 264.6502,23.344008 235.5427,23.292607 212.24327,31.370478 c -28.57039,9.905386 -52.68159,30.263282 -66.47781,56.12942 -24.47154,45.881052 -16.03302,101.893272 20.91753,138.843822 27.16649,27.16649 66.63224,39.90754 103.91759,33.54856 z M 262.52684,143.49995 V 77.499952 h -12.49999 -12.5 v 65.999998 66.00001 h 12.5 12.49999 z"
   id="path10"
   sodipodi:nodetypes="csscssscssccssscccsscscsssscccsscssssccccccccc" /><path
   style="fill:#ffe365;fill-opacity:1;stroke:#000000;stroke-width:3.77953;stroke-opacity:1"
   d="m 233.18648,308.82624 c -0.28913,-0.28914 -2.01811,-0.65976 -3.84253,-0.8239 -13.79142,-1.24105 -24.36945,-3.81653 -39.08954,-9.51742 -21.67256,-8.39346 -40.05619,-20.47907 -57.14483,-37.56771 -17.08863,-17.08868 -29.17424,-35.47226 -37.56771,-57.14483 -7.919448,-20.4486 -10.979149,-37.2455 -10.979149,-60.27243 0,-28.07656 5.382699,-50.976792 17.775709,-75.625245 7.30029,-14.519547 27.1584,-41.374753 30.59461,-41.374753 0.6274,0 4.69217,3.572371 9.03276,7.938595 l 7.89208,7.938633 -2.69515,3.311358 c -1.48233,1.821279 -4.96944,6.011414 -7.74913,9.311395 -6.20908,7.371364 -15.78765,23.308158 -19.79591,32.936425 -11.96399,28.738812 -14.36879,61.547532 -6.6848,91.200992 8.44255,32.58084 30.17686,62.99357 58.48681,81.84026 21.04933,14.01309 43.17355,21.61062 68.07686,23.37774 42.93554,3.04671 83.15969,-12.31072 112.59828,-42.98964 39.25845,-40.91251 50.29924,-100.68366 28.34117,-153.429352 -4.00827,-9.628267 -13.58684,-25.565061 -19.79592,-32.936425 -2.77969,-3.299981 -6.26706,-7.490457 -7.74969,-9.312151 l -2.69575,-3.312151 8.4161,-8.470489 8.4161,-8.470526 5.27244,5.782678 c 17.3929,19.075993 32.00738,45.92058 38.19659,70.161336 6.52184,25.54352 6.68628,58.16984 0.4165,82.62131 -7.47243,29.1414 -22.62293,55.71174 -43.89834,76.98719 -24.88218,24.88214 -54.27357,40.04546 -90.48718,46.68314 -5.83563,1.06964 -42.45015,2.0462 -43.34038,1.15597 z m 4.34037,-48.42622 c -51.63125,-5.78581 -94.54424,-45.83214 -103.53267,-96.61655 -1.62263,-9.16777 -2.12105,-28.48675 -0.9518,-36.89276 3.61549,-25.99321 16.81474,-51.294959 36.20663,-69.40483 31.57326,-29.485985 75.19166,-39.367749 116.44876,-26.381594 15.09309,4.750715 27.77446,11.834457 41.17016,22.99748 l 6.8411,5.700851 -8.00738,8.007345 -8.00735,8.007345 -4.70702,-4.14327 c -38.21273,-33.636208 -98.08702,-30.668183 -132.56417,6.571276 -19.7333,21.314265 -29.08426,51.592707 -24.51538,79.380667 6.60234,40.1557 35.91371,70.8836 75.41703,79.06174 12.40328,2.56777 30.60548,2.09658 42.70209,-1.1054 11.41153,-3.02067 26.60704,-10.80098 36,-18.43261 l 8.00001,-6.49984 8.30495,8.17504 8.30498,8.17505 -3.80496,3.36608 c -19.23803,17.0191 -42.04778,27.2959 -66.80497,30.09861 -10.19399,1.15404 -15.74562,1.14051 -26.50001,-0.0646 z m 0,-116.90007 V 77.499952 h 12.5 12.49999 v 65.999998 66.00001 h -12.49999 -12.5 z"
   id="path8" /></svg>
